<!DOCTYPE svg PUBLIC "-//W3C//DTD SVG 20010904//EN" "http://www.w3.org/TR/2001/REC-SVG-20010904/DTD/svg10.dtd">
<svg version="1.0" xmlns="http://www.w3.org/2000/svg" width="123px" height="81px" viewBox="0 0 1230 810" preserveAspectRatio="xMidYMid meet">
<g id="layer1" fill="#000000" stroke="none">
 <path d="M254 477 c-2 -7 -3 -65 -2 -128 l3 -114 57 -3 c71 -4 109 15 133 64 27 56 15 120 -30 162 -31 29 -41 32 -95 32 -41 0 -62 -4 -66 -13z m113 -52 c27 -19 37 -63 23 -101 -13 -33 -26 -44 -57 -44 -22 0 -23 4 -23 80 0 70 2 80 18 80 10 0 27 -7 39 -15z"/>
 <path d="M484 476 c-2 -6 -3 -64 -2 -127 l3 -114 25 0 c25 0 25 1 28 103 l3 102 37 0 c21 0 43 -5 49 -11 9 -9 19 -9 42 1 65 27 85 -18 22 -50 -42 -21 -71 -54 -71 -81 0 -9 9 -28 21 -43 17 -22 29 -26 69 -26 30 0 52 6 60 15 21 25 6 40 -40 40 -54 0 -62 18 -18 41 50 25 78 55 79 83 0 16 15 -14 37 -74 33 -88 40 -100 63 -103 14 -2 30 3 36 10 19 24 85 218 79 233 -10 27 -47 18 -59 -15 -10 -26 -16 -30 -49 -30 -30 0 -39 5 -50 28 -16 32 -64 40 -62 10 2 -16 0 -16 -22 1 -21 16 -43 19 -150 20 -92 0 -126 -3 -130 -13z m424 -128 c-10 -28 -12 -30 -19 -12 -13 32 -10 44 10 44 18 0 19 -3 9 -32z"/>
 </g>

</svg>